<?xml version="1.0" encoding="UTF-8"?>
<svg width="209px" height="135px" viewBox="0 0 209 135" version="1.1" xmlns="http://www.w3.org/2000/svg" xmlns:xlink="http://www.w3.org/1999/xlink">
    <!-- Generator: Sketch 54.1 (76490) - https://sketchapp.com -->
    <title>arrow keys@1x</title>
    <desc>Created with Sketch.</desc>
    <g id="Page-1" stroke="none" stroke-width="1" fill="none" fill-rule="evenodd">
        <g id="Desktop-HD-Copy-2" transform="translate(-79.000000, -339.000000)" fill="#25CED1" fill-rule="nonzero">
            <g id="arrow-keys" transform="translate(79.000000, 339.000000)">
                <g id="up-key" transform="translate(73.000000, 0.000000)">
                    <g id="Asset-2">
                        <path d="M57.1030844,9.48888014 C55.1785218,3.81779996 49.9063079,0.00669327226 43.9763446,0 L14.1320418,0 C6.4727087,0.0107400276 0.26723446,6.28783286 0.260158042,14.0319819 L0.260158042,18.8608542 C0.0885963026,19.7948205 0.00151732524,20.7426436 1.13686838e-13,21.6925802 L1.13686838e-13,50.5034442 C0.010617514,59.0575051 6.86646259,65.9892649 15.3268417,66 L47.6731583,66 C56.1335374,65.9892649 62.9893825,59.0575051 63,50.5034442 L63,21.6925802 C63.0000069,16.9231061 60.8241918,12.4202446 57.1030844,9.48888014 Z M2.89064491,14.0319819 C2.89064491,7.75478364 7.92358974,2.66610903 14.1320418,2.66610903 L43.969921,2.66610903 C50.1739736,2.67683476 55.2007096,7.75923176 55.2113179,14.0319819 L55.2113179,40.60864 C55.2024728,46.8821302 50.1747056,51.9655699 43.969921,51.9745129 L14.1320418,51.9745129 C7.92358974,51.9745129 2.89064491,46.8858383 2.89064491,40.60864 L2.89064491,14.0319819 Z M47.6731583,62.5382799 L15.3268417,62.5382799 C8.75591306,62.5311207 3.43088906,57.1471327 3.42380831,50.5034442 L3.42380831,49.5129896 C6.05398095,52.7568668 9.98338893,54.6384619 14.1320418,54.6406219 L43.969921,54.6406219 C46.0859039,54.6438052 48.1741311,54.1537497 50.0723936,53.2085219 C50.0397069,53.4922103 50.0876119,53.7794437 50.2105022,54.036607 L53.4672954,61.0120055 C51.6974399,62.0150101 49.702071,62.5406243 47.6731583,62.5382799 L47.6731583,62.5382799 Z M59.5761917,50.5034442 C59.5721812,53.8281321 58.2058598,57.0025292 55.8022942,59.2714033 C54.761662,57.0371974 53.7188886,54.8029915 52.673974,52.5687857 C52.5626317,52.3047629 52.3654707,52.0870882 52.115116,51.9517811 C55.7217816,49.3142576 57.856775,45.0863787 57.8546521,40.5859083 L57.8546521,15.4608345 C58.9834214,17.3389108 59.5790292,19.4949325 59.5761917,21.6925802 L59.5761917,50.5034442 Z" id="Shape"></path>
                    </g>
                    <g id="arrow" transform="translate(21.694933, 16.000000)">
                        <path d="M8.42943001,0.418067148 L13.9761577,6.3148436 C14.3545591,6.71712559 14.3352001,7.34999455 13.9329181,7.72839598 C13.7474424,7.90286134 13.5023975,8 13.2477617,8 L0.697539957,8 C0.145255207,8 -0.302460043,7.55228475 -0.302460043,7 C-0.302460043,6.74536498 -0.205321984,6.5003208 -0.0308575987,6.31484527 L5.51584294,0.418070498 C6.27264395,-0.386495226 7.53838178,-0.425216173 8.3429475,0.331584841 C8.3726499,0.359523896 8.40149089,0.388364813 8.42943001,0.418067148 Z" id="Triangle"></path>
                        <path d="M4.97263789,6.82963829 L8.97263789,6.82963829 L8.97263789,20.8296383 C8.97263789,21.381923 8.52492264,21.8296383 7.97263789,21.8296383 L5.97263789,21.8296383 C5.42035314,21.8296383 4.97263789,21.381923 4.97263789,20.8296383 L4.97263789,6.82963829 Z" id="Rectangle"></path>
                    </g>
                </g>
                <g id="down-key" transform="translate(73.000000, 69.000000)">
                    <g id="Asset-2-Copy">
                        <path d="M57.1030844,9.48888014 C55.1785218,3.81779996 49.9063079,0.00669327226 43.9763446,0 L14.1320418,0 C6.4727087,0.0107400276 0.26723446,6.28783286 0.260158042,14.0319819 L0.260158042,18.8608542 C0.0885963026,19.7948205 0.00151732524,20.7426436 1.13686838e-13,21.6925802 L1.13686838e-13,50.5034442 C0.010617514,59.0575051 6.86646259,65.9892649 15.3268417,66 L47.6731583,66 C56.1335374,65.9892649 62.9893825,59.0575051 63,50.5034442 L63,21.6925802 C63.0000069,16.9231061 60.8241918,12.4202446 57.1030844,9.48888014 Z M2.89064491,14.0319819 C2.89064491,7.75478364 7.92358974,2.66610903 14.1320418,2.66610903 L43.969921,2.66610903 C50.1739736,2.67683476 55.2007096,7.75923176 55.2113179,14.0319819 L55.2113179,40.60864 C55.2024728,46.8821302 50.1747056,51.9655699 43.969921,51.9745129 L14.1320418,51.9745129 C7.92358974,51.9745129 2.89064491,46.8858383 2.89064491,40.60864 L2.89064491,14.0319819 Z M47.6731583,62.5382799 L15.3268417,62.5382799 C8.75591306,62.5311207 3.43088906,57.1471327 3.42380831,50.5034442 L3.42380831,49.5129896 C6.05398095,52.7568668 9.98338893,54.6384619 14.1320418,54.6406219 L43.969921,54.6406219 C46.0859039,54.6438052 48.1741311,54.1537497 50.0723936,53.2085219 C50.0397069,53.4922103 50.0876119,53.7794437 50.2105022,54.036607 L53.4672954,61.0120055 C51.6974399,62.0150101 49.702071,62.5406243 47.6731583,62.5382799 L47.6731583,62.5382799 Z M59.5761917,50.5034442 C59.5721812,53.8281321 58.2058598,57.0025292 55.8022942,59.2714033 C54.761662,57.0371974 53.7188886,54.8029915 52.673974,52.5687857 C52.5626317,52.3047629 52.3654707,52.0870882 52.115116,51.9517811 C55.7217816,49.3142576 57.856775,45.0863787 57.8546521,40.5859083 L57.8546521,15.4608345 C58.9834214,17.3389108 59.5790292,19.4949325 59.5761917,21.6925802 L59.5761917,50.5034442 Z" id="Shape"></path>
                    </g>
                    <g id="arrow-copy" transform="translate(28.694933, 28.000000) scale(1, -1) translate(-28.694933, -28.000000) translate(21.694933, 17.000000)">
                        <path d="M8.42943001,0.418067148 L13.9761577,6.3148436 C14.3545591,6.71712559 14.3352001,7.34999455 13.9329181,7.72839598 C13.7474424,7.90286134 13.5023975,8 13.2477617,8 L0.697539957,8 C0.145255207,8 -0.302460043,7.55228475 -0.302460043,7 C-0.302460043,6.74536498 -0.205321984,6.5003208 -0.0308575987,6.31484527 L5.51584294,0.418070498 C6.27264395,-0.386495226 7.53838178,-0.425216173 8.3429475,0.331584841 C8.3726499,0.359523896 8.40149089,0.388364813 8.42943001,0.418067148 Z" id="Triangle"></path>
                        <path d="M4.97263789,6.82963829 L8.97263789,6.82963829 L8.97263789,20.8296383 C8.97263789,21.381923 8.52492264,21.8296383 7.97263789,21.8296383 L5.97263789,21.8296383 C5.42035314,21.8296383 4.97263789,21.381923 4.97263789,20.8296383 L4.97263789,6.82963829 Z" id="Rectangle"></path>
                    </g>
                </g>
                <g id="left-key" transform="translate(0.000000, 69.000000)">
                    <g id="Asset-2-Copy-2">
                        <path d="M57.1030844,9.48888014 C55.1785218,3.81779996 49.9063079,0.00669327226 43.9763446,0 L14.1320418,0 C6.4727087,0.0107400276 0.26723446,6.28783286 0.260158042,14.0319819 L0.260158042,18.8608542 C0.0885963026,19.7948205 0.00151732524,20.7426436 1.13686838e-13,21.6925802 L1.13686838e-13,50.5034442 C0.010617514,59.0575051 6.86646259,65.9892649 15.3268417,66 L47.6731583,66 C56.1335374,65.9892649 62.9893825,59.0575051 63,50.5034442 L63,21.6925802 C63.0000069,16.9231061 60.8241918,12.4202446 57.1030844,9.48888014 Z M2.89064491,14.0319819 C2.89064491,7.75478364 7.92358974,2.66610903 14.1320418,2.66610903 L43.969921,2.66610903 C50.1739736,2.67683476 55.2007096,7.75923176 55.2113179,14.0319819 L55.2113179,40.60864 C55.2024728,46.8821302 50.1747056,51.9655699 43.969921,51.9745129 L14.1320418,51.9745129 C7.92358974,51.9745129 2.89064491,46.8858383 2.89064491,40.60864 L2.89064491,14.0319819 Z M47.6731583,62.5382799 L15.3268417,62.5382799 C8.75591306,62.5311207 3.43088906,57.1471327 3.42380831,50.5034442 L3.42380831,49.5129896 C6.05398095,52.7568668 9.98338893,54.6384619 14.1320418,54.6406219 L43.969921,54.6406219 C46.0859039,54.6438052 48.1741311,54.1537497 50.0723936,53.2085219 C50.0397069,53.4922103 50.0876119,53.7794437 50.2105022,54.036607 L53.4672954,61.0120055 C51.6974399,62.0150101 49.702071,62.5406243 47.6731583,62.5382799 L47.6731583,62.5382799 Z M59.5761917,50.5034442 C59.5721812,53.8281321 58.2058598,57.0025292 55.8022942,59.2714033 C54.761662,57.0371974 53.7188886,54.8029915 52.673974,52.5687857 C52.5626317,52.3047629 52.3654707,52.0870882 52.115116,51.9517811 C55.7217816,49.3142576 57.856775,45.0863787 57.8546521,40.5859083 L57.8546521,15.4608345 C58.9834214,17.3389108 59.5790292,19.4949325 59.5761917,21.6925802 L59.5761917,50.5034442 Z" id="Shape"></path>
                    </g>
                    <g id="arrow-copy-3" transform="translate(29.000000, 28.000000) scale(-1, -1) rotate(90.000000) translate(-29.000000, -28.000000) translate(22.000000, 17.000000)">
                        <path d="M8.42943001,0.418067148 L13.9761577,6.3148436 C14.3545591,6.71712559 14.3352001,7.34999455 13.9329181,7.72839598 C13.7474424,7.90286134 13.5023975,8 13.2477617,8 L0.697539957,8 C0.145255207,8 -0.302460043,7.55228475 -0.302460043,7 C-0.302460043,6.74536498 -0.205321984,6.5003208 -0.0308575987,6.31484527 L5.51584294,0.418070498 C6.27264395,-0.386495226 7.53838178,-0.425216173 8.3429475,0.331584841 C8.3726499,0.359523896 8.40149089,0.388364813 8.42943001,0.418067148 Z" id="Triangle"></path>
                        <path d="M4.97263789,6.82963829 L8.97263789,6.82963829 L8.97263789,20.8296383 C8.97263789,21.381923 8.52492264,21.8296383 7.97263789,21.8296383 L5.97263789,21.8296383 C5.42035314,21.8296383 4.97263789,21.381923 4.97263789,20.8296383 L4.97263789,6.82963829 Z" id="Rectangle"></path>
                    </g>
                </g>
                <g id="right-key" transform="translate(146.000000, 69.000000)">
                    <g id="Asset-2-Copy-3">
                        <path d="M57.1030844,9.48888014 C55.1785218,3.81779996 49.9063079,0.00669327226 43.9763446,0 L14.1320418,0 C6.4727087,0.0107400276 0.26723446,6.28783286 0.260158042,14.0319819 L0.260158042,18.8608542 C0.0885963026,19.7948205 0.00151732524,20.7426436 1.13686838e-13,21.6925802 L1.13686838e-13,50.5034442 C0.010617514,59.0575051 6.86646259,65.9892649 15.3268417,66 L47.6731583,66 C56.1335374,65.9892649 62.9893825,59.0575051 63,50.5034442 L63,21.6925802 C63.0000069,16.9231061 60.8241918,12.4202446 57.1030844,9.48888014 Z M2.89064491,14.0319819 C2.89064491,7.75478364 7.92358974,2.66610903 14.1320418,2.66610903 L43.969921,2.66610903 C50.1739736,2.67683476 55.2007096,7.75923176 55.2113179,14.0319819 L55.2113179,40.60864 C55.2024728,46.8821302 50.1747056,51.9655699 43.969921,51.9745129 L14.1320418,51.9745129 C7.92358974,51.9745129 2.89064491,46.8858383 2.89064491,40.60864 L2.89064491,14.0319819 Z M47.6731583,62.5382799 L15.3268417,62.5382799 C8.75591306,62.5311207 3.43088906,57.1471327 3.42380831,50.5034442 L3.42380831,49.5129896 C6.05398095,52.7568668 9.98338893,54.6384619 14.1320418,54.6406219 L43.969921,54.6406219 C46.0859039,54.6438052 48.1741311,54.1537497 50.0723936,53.2085219 C50.0397069,53.4922103 50.0876119,53.7794437 50.2105022,54.036607 L53.4672954,61.0120055 C51.6974399,62.0150101 49.702071,62.5406243 47.6731583,62.5382799 L47.6731583,62.5382799 Z M59.5761917,50.5034442 C59.5721812,53.8281321 58.2058598,57.0025292 55.8022942,59.2714033 C54.761662,57.0371974 53.7188886,54.8029915 52.673974,52.5687857 C52.5626317,52.3047629 52.3654707,52.0870882 52.115116,51.9517811 C55.7217816,49.3142576 57.856775,45.0863787 57.8546521,40.5859083 L57.8546521,15.4608345 C58.9834214,17.3389108 59.5790292,19.4949325 59.5761917,21.6925802 L59.5761917,50.5034442 Z" id="Shape"></path>
                    </g>
                    <g id="arrow-copy-2" transform="translate(32.000000, 28.000000) scale(1, -1) rotate(90.000000) translate(-32.000000, -28.000000) translate(25.000000, 17.000000)">
                        <path d="M8.42943001,0.418067148 L13.9761577,6.3148436 C14.3545591,6.71712559 14.3352001,7.34999455 13.9329181,7.72839598 C13.7474424,7.90286134 13.5023975,8 13.2477617,8 L0.697539957,8 C0.145255207,8 -0.302460043,7.55228475 -0.302460043,7 C-0.302460043,6.74536498 -0.205321984,6.5003208 -0.0308575987,6.31484527 L5.51584294,0.418070498 C6.27264395,-0.386495226 7.53838178,-0.425216173 8.3429475,0.331584841 C8.3726499,0.359523896 8.40149089,0.388364813 8.42943001,0.418067148 Z" id="Triangle"></path>
                        <path d="M4.97263789,6.82963829 L8.97263789,6.82963829 L8.97263789,20.8296383 C8.97263789,21.381923 8.52492264,21.8296383 7.97263789,21.8296383 L5.97263789,21.8296383 C5.42035314,21.8296383 4.97263789,21.381923 4.97263789,20.8296383 L4.97263789,6.82963829 Z" id="Rectangle"></path>
                    </g>
                </g>
            </g>
        </g>
    </g>
</svg>